<svg width="180" height="156" viewBox="0 0 180 156" fill="none" xmlns="http://www.w3.org/2000/svg">
<rect width="180" height="156" rx="8" fill="#1B0514"/>
<path d="M67.792 69.28C66.9813 67.7867 65.808 66.656 64.272 65.888C62.7787 65.0773 61.008 64.672 58.96 64.672C55.4187 64.672 52.5813 65.8453 50.448 68.192C48.3147 70.496 47.248 73.5893 47.248 77.472C47.248 81.6107 48.3573 84.8533 50.576 87.2C52.8373 89.504 55.9307 90.656 59.856 90.656C62.544 90.656 64.8053 89.9733 66.64 88.608C68.5173 87.2427 69.8827 85.28 70.736 82.72H56.848V74.656H80.656V84.832C79.8453 87.5627 78.4587 90.1013 76.496 92.448C74.576 94.7947 72.1227 96.6933 69.136 98.144C66.1493 99.5947 62.7787 100.32 59.024 100.32C54.5867 100.32 50.6187 99.36 47.12 97.44C43.664 95.4773 40.9547 92.768 38.992 89.312C37.072 85.856 36.112 81.9093 36.112 77.472C36.112 73.0347 37.072 69.088 38.992 65.632C40.9547 62.1333 43.664 59.424 47.12 57.504C50.576 55.5413 54.5227 54.56 58.96 54.56C64.336 54.56 68.8587 55.8613 72.528 58.464C76.24 61.0667 78.6933 64.672 79.888 69.28H67.792ZM140.798 55.072V100H129.854V73.056L119.806 100H110.974L100.862 72.992V100H89.918V55.072H102.846L115.454 86.176L127.934 55.072H140.798Z" fill="#FF6BD2"/>
</svg>
